<svg id="layer_1" data-name="layer 1" xmlns="http://www.w3.org/2000/svg" xmlns:xlink="http://www.w3.org/1999/xlink" viewBox="0 0 48 53"><defs><style>.cls-1{fill:url(#unnamed_gradient_17);}.cls-2{fill:url(#unnamed_gradient_27);}.cls-3{fill:url(#unnamed_gradient_27-2);}.cls-4{fill:url(#unnamed_gradient_6);}.cls-5{fill:#67892c;}.cls-6{fill:url(#unnamed_gradient_32);}.cls-7{fill:url(#unnamed_gradient_29);}.cls-8{fill:#35557f;}.cls-9{fill:#4d79ae;}.cls-10{fill:#6dade2;}</style><linearGradient id="unnamed_gradient_17" x1="4.93" y1="45.99" x2="39.99" y2="46.24" gradientUnits="userSpaceOnUse"><stop offset="0" stop-color="#5586b4"/><stop offset="0.48" stop-color="#aadf64"/><stop offset="1" stop-color="#5682b2"/></linearGradient><linearGradient id="unnamed_gradient_27" x1="22.17" y1="50.59" x2="21.98" y2="29.74" gradientUnits="userSpaceOnUse"><stop offset="0" stop-color="#921a0d"/><stop offset="0.43" stop-color="#b64727"/><stop offset="0.8" stop-color="#d06638"/><stop offset="1" stop-color="#d9723f"/></linearGradient><linearGradient id="unnamed_gradient_27-2" x1="22.16" y1="50.59" x2="21.97" y2="29.74" xlink:href="#unnamed_gradient_27"/><linearGradient id="unnamed_gradient_6" x1="30.44" y1="32.59" x2="41.71" y2="33.81" gradientUnits="userSpaceOnUse"><stop offset="0" stop-color="#97b757"/><stop offset="1" stop-color="#b3ec58"/></linearGradient><linearGradient id="unnamed_gradient_32" x1="3.16" y1="22.62" x2="18.74" y2="31.44" gradientUnits="userSpaceOnUse"><stop offset="0" stop-color="#c7553b"/><stop offset="1" stop-color="#e5bd3b"/></linearGradient><linearGradient id="unnamed_gradient_29" x1="27.13" y1="30.08" x2="40.19" y2="17.53" gradientUnits="userSpaceOnUse"><stop offset="0" stop-color="#c66440"/><stop offset="1" stop-color="#e5c53e"/></linearGradient></defs><title>Healthene_logo_color</title><path class="cls-1" d="M39.24,40.37a19.85,19.85,0,0,1-16.31,8.88A19.85,19.85,0,0,1,6.62,40.37H3.36A25.23,25.23,0,0,0,6.5,44.62,23,23,0,0,0,13.85,50,21.71,21.71,0,0,0,32,50a23,23,0,0,0,7.35-5.39,25.23,25.23,0,0,0,3.14-4.25Z"/><ellipse class="cls-2" cx="22.01" cy="33.6" rx="1.24" ry="2.01"/><path class="cls-3" d="M24.53,39.09c-.46-4.67,3.21-9.61,3.85-10.44-2.84,1.1-4.4,4.76-4.76,7s-1.93,1.74-3.48-.27-2.93-2-3.76-2C19.13,34.79,21,38,20.59,40.74c-.82,7-3.84,8.88-4.85,10a6.72,6.72,0,0,0,4.67-4.12,15.45,15.45,0,0,1,1.47-2.66c.36-.46,1.55-1.28,2.1.28.36,1.77,3.12,5.58,4.58,6.13C26.64,48.15,25,43.76,24.53,39.09Z"/><path class="cls-4" d="M31,32.68A12.07,12.07,0,0,1,39.18,31a21.73,21.73,0,0,1,8,3.12s-4.21,2-7.33,1.92A13.82,13.82,0,0,1,31,32.68Z"/><path class="cls-5" d="M1,38.72s3.63-4.18,5.49-4.85c1.29-.46,3.94-1.19,8.7-.64-.91,1.28-1.55,3.11-5.95,5.22A14.92,14.92,0,0,1,1,38.72Z"/><path class="cls-6" d="M2.92,24.35c.92.09,7.6.18,9.16.27s4.85.83,8.61,5.4a12.59,12.59,0,0,1-9.25.92C6.77,29.75,2.92,24.35,2.92,24.35Z"/><path class="cls-7" d="M28,30.48c0-1.46,0-7.34,2.56-10.25,2.75-3.12,8.89-5.5,12.55-5.77-.46,4.12-1.37,7.51-4.4,11S30.67,30.94,28,30.48Z"/><path class="cls-8" d="M25,30c.92-1.55,2.75-4.94,1.46-11.35S21.78,6.77,16.2,1.18c0,4.31-.64,13.65,1.56,18.77A28.63,28.63,0,0,0,25,30Z"/><path class="cls-9" d="M9,9.33s2.65,9.34,5.31,13.28S23,28.1,23,28.1s1.55-4.39-2.11-9.43S14.46,11.8,9,9.33Z"/><path class="cls-10" d="M16.36,13.65a21.67,21.67,0,0,0,1.4,6.3A31.28,31.28,0,0,0,23,28.08c.1-.3,1.42-4.56-2.11-9.41A27.47,27.47,0,0,0,16.36,13.65Z"/></svg>
